<svg width="201" height="58" viewBox="0 0 201 58" fill="none" xmlns="http://www.w3.org/2000/svg">
<path d="M49.68 46V44.656L54 43.768L54.048 27.904L54 12.352L49.68 11.536V10H63.528C67 10 69.68 10.848 71.568 12.544C73.456 14.224 74.4 16.736 74.4 20.08C74.4 23.36 73.424 26.032 71.472 28.096C69.536 30.16 66.68 31.192 62.904 31.192C61.608 31.192 60.352 31.12 59.136 30.976C57.936 30.832 57.008 30.68 56.352 30.52L56.568 29.056C57.464 29.296 58.32 29.456 59.136 29.536C59.952 29.616 61.064 29.656 62.472 29.656C64.84 29.656 66.648 28.864 67.896 27.28C69.144 25.696 69.768 23.264 69.768 19.984C69.768 17.136 69.128 15.024 67.848 13.648C66.568 12.256 64.752 11.56 62.4 11.56H59.04L58.32 12.112L58.272 27.664L58.32 43.888L63.024 44.656V46H49.68ZM76.7419 34.36C76.7419 30.824 77.7019 27.912 79.6219 25.624C81.5419 23.32 84.0539 22.168 87.1579 22.168C90.0059 22.168 92.2299 23.112 93.8299 25C95.4459 26.872 96.4059 29.4 96.7099 32.584H92.7979C92.6219 30.104 92.0539 28.008 91.0939 26.296C90.1499 24.568 88.7099 23.704 86.7739 23.704C85.0299 23.704 83.6299 24.544 82.5739 26.224C81.5179 27.904 80.9979 30.408 81.0139 33.736C81.0299 37.624 81.7259 40.392 83.1019 42.04C84.4939 43.672 86.3499 44.488 88.6699 44.488C90.1419 44.488 91.3819 44.24 92.3899 43.744C93.3979 43.248 94.2699 42.592 95.0059 41.776L95.7499 42.544C95.0939 43.632 94.1259 44.568 92.8459 45.352C91.5819 46.136 89.9819 46.528 88.0459 46.528C84.7019 46.528 81.9819 45.44 79.8859 43.264C77.7899 41.072 76.7419 38.104 76.7419 34.36ZM80.0539 33.448V32.104H95.5099L96.7099 32.512V33.448H80.0539ZM98.8016 46V44.92L101.946 44.08L101.994 33.472L101.946 25.528L98.8016 24.76V23.488L105.042 22.672L105.666 23.08L106.002 26.44L105.978 33.472L106.026 44.08L108.906 44.92V46H98.8016ZM105.882 28.144L105.378 27.232C106.002 25.824 107.042 24.632 108.498 23.656C109.954 22.68 111.602 22.192 113.442 22.192C115.682 22.192 117.354 22.736 118.458 23.824C119.578 24.896 120.138 26.368 120.138 28.24C120.138 29.408 120.122 30.672 120.09 32.032C120.058 33.376 120.042 34.048 120.042 34.048L120.162 44.08L123.282 44.92V46H112.818V44.92L116.082 44.08L116.13 33.448V28.984C116.13 27.56 115.77 26.472 115.05 25.72C114.346 24.968 113.33 24.592 112.002 24.592C110.722 24.592 109.538 24.912 108.45 25.552C107.362 26.176 106.506 27.04 105.882 28.144ZM126.177 46V44.92L129.321 44.08L129.369 33.472L129.321 25.528L126.177 24.76V23.488L132.417 22.672L133.041 23.08L133.377 26.44L133.353 33.472L133.401 44.08L136.281 44.92V46H126.177ZM133.257 28.144L132.753 27.232C133.377 25.824 134.417 24.632 135.873 23.656C137.329 22.68 138.977 22.192 140.817 22.192C143.057 22.192 144.729 22.736 145.833 23.824C146.953 24.896 147.513 26.368 147.513 28.24C147.513 29.408 147.497 30.672 147.465 32.032C147.433 33.376 147.417 34.048 147.417 34.048L147.537 44.08L150.657 44.92V46H140.193V44.92L143.457 44.08L143.505 33.448V28.984C143.505 27.56 143.145 26.472 142.425 25.72C141.721 24.968 140.705 24.592 139.377 24.592C138.097 24.592 136.913 24.912 135.825 25.552C134.737 26.176 133.881 27.04 133.257 28.144ZM153.336 34.36C153.336 30.824 154.296 27.912 156.216 25.624C158.136 23.32 160.648 22.168 163.752 22.168C166.6 22.168 168.824 23.112 170.424 25C172.04 26.872 173 29.4 173.304 32.584H169.392C169.216 30.104 168.648 28.008 167.688 26.296C166.744 24.568 165.304 23.704 163.368 23.704C161.624 23.704 160.224 24.544 159.168 26.224C158.112 27.904 157.592 30.408 157.608 33.736C157.624 37.624 158.32 40.392 159.696 42.04C161.088 43.672 162.944 44.488 165.264 44.488C166.736 44.488 167.976 44.24 168.984 43.744C169.992 43.248 170.864 42.592 171.6 41.776L172.344 42.544C171.688 43.632 170.72 44.568 169.44 45.352C168.176 46.136 166.576 46.528 164.64 46.528C161.296 46.528 158.576 45.44 156.48 43.264C154.384 41.072 153.336 38.104 153.336 34.36ZM156.648 33.448V32.104H172.104L173.304 32.512V33.448H156.648ZM175.251 34.792C175.251 30.872 176.235 27.8 178.203 25.576C180.171 23.336 182.723 22.216 185.859 22.216C187.379 22.216 188.811 22.52 190.155 23.128C191.499 23.72 192.387 24.432 192.819 25.264L191.907 26.92C191.475 25.88 190.795 25.072 189.867 24.496C188.955 23.904 187.771 23.608 186.315 23.608C184.283 23.608 182.659 24.552 181.443 26.44C180.243 28.312 179.643 30.912 179.643 34.24C179.643 37.856 180.195 40.456 181.299 42.04C182.403 43.624 183.883 44.416 185.739 44.416C187.195 44.416 188.451 44.056 189.507 43.336C190.563 42.616 191.379 41.688 191.955 40.552L192.843 41.08C192.219 42.6 191.211 43.84 189.819 44.8C188.443 45.744 186.755 46.216 184.755 46.216C181.987 46.216 179.707 45.224 177.915 43.24C176.139 41.256 175.251 38.44 175.251 34.792ZM187.875 11.272V10L194.667 9.184L195.147 9.208L195.651 9.976L195.579 33.208L195.795 44.08L198.987 44.92V46H193.203L192.339 45.016L191.787 42.304L191.811 33.232L191.571 11.992L187.875 11.272Z" fill="black"/>
<path d="M22 27.54V9L34 31L26 43H14L6 31L18 9V27.54C17.2374 27.9803 16.6414 28.6599 16.3045 29.4734C15.9675 30.2869 15.9084 31.1888 16.1363 32.0394C16.3642 32.8899 16.8664 33.6415 17.565 34.1775C18.2635 34.7136 19.1195 35.0041 20 35.0041C20.8805 35.0041 21.7365 34.7136 22.435 34.1775C23.1336 33.6415 23.6358 32.8899 23.8637 32.0394C24.0916 31.1888 24.0325 30.2869 23.6955 29.4734C23.3586 28.6599 22.7626 27.9803 22 27.54ZM12 45H28V49H12V45Z" fill="black"/>
</svg>
